HIERARCHY
ROOT pelvis
{
  OFFSET 0 100 0
  CHANNELS 6 Xposition Yposition Zposition Zrotation Xrotation Yrotation
  JOINT pelvis_right_femur
  {
    OFFSET -10.78128 -3.44521 -0.5502486
    CHANNELS 3 Zrotation Xrotation Yrotation
    JOINT right_femur_tibia
    {
      OFFSET -0.8047443 -44.0398 -0.1307829
      CHANNELS 3 Zrotation Xrotation Yrotation
      JOINT right_tibia_foot
      {
        OFFSET 3.006224 -47.83518 -5
        CHANNELS 3 Zrotation Xrotation Yrotation
        End Site
        {
          OFFSET 0 -5 15
        }
      }
    }
  }
  JOINT pelvis_left_femur
  {
    OFFSET 10.78128 -3.44521 -0.5502486
    CHANNELS 3 Zrotation Xrotation Yrotation
    JOINT left_femur_tibia
    {
      OFFSET 0.8047443 -44.0398 -0.1307829
      CHANNELS 3 Zrotation Xrotation Yrotation
      JOINT left_tibia_foot
      {
        OFFSET -4.370144 -48.10324 -4.275266
        CHANNELS 3 Zrotation Xrotation Yrotation
        End Site
        {
          OFFSET 0 -5 15
        }
      }
    }
  }
  JOINT pelvis_spine1
  {
    OFFSET 0 6.468898 -3.129235
    CHANNELS 3 Zrotation Xrotation Yrotation
    JOINT spine1
    {
      OFFSET 0 23.15396 4.99043
      CHANNELS 3 Zrotation Xrotation Yrotation
      JOINT spine2
      {
        OFFSET 0 20.79997 -5.064912
        CHANNELS 3 Zrotation Xrotation Yrotation
        JOINT neck
        {
          OFFSET 0 14.38658 9.616178
          CHANNELS 3 Zrotation Xrotation Yrotation
          End Site
          {
            OFFSET 0 20 0
          }
        }
      }
      JOINT right_manubrium
      {
        OFFSET -5.722621 16.35077 3.967754
        CHANNELS 3 Zrotation Xrotation Yrotation
        JOINT right_clavicle
        {
          OFFSET -13.16364 1.694482 -4.693211
          CHANNELS 3 Zrotation Xrotation Yrotation
          JOINT right_humerus
          {
            OFFSET -28.5034 -0.3100689 -2.792744
            CHANNELS 3 Zrotation Xrotation Yrotation
            JOINT right_radius
            {
              OFFSET -25.15693 0.02248979 -1.271978
              CHANNELS 3 Zrotation Xrotation Yrotation
              End Site
              {
                OFFSET -15 0 0
              }
            }
          }
        }
      }
      JOINT left_manubrium
      {
        OFFSET 5.722621 16.35077 3.967754
        CHANNELS 3 Zrotation Xrotation Yrotation
        JOINT left_clavicle
        {
          OFFSET 13.16364 1.694482 -4.693211
          CHANNELS 3 Zrotation Xrotation Yrotation
          JOINT left_humerus
          {
            OFFSET 29.39168 -1.063119 -2.237045
            CHANNELS 3 Zrotation Xrotation Yrotation
            JOINT left_radius
            {
              OFFSET 24.59957 -0.9528479 0.9047498
              CHANNELS 3 Zrotation Xrotation Yrotation
              End Site
              {
                OFFSET 15 -0 -0
              }
            }
          }
        }
      }
    }
  }
}
MOTION
Frames: 7
Frame Time: 0.0416666666667
-292.5403 95.62947 -169.8501 9.855681 -8.088827 54.48821 7.097583 8.556932 -3.555204 -0 17.59923 -0 -7.554865 5.30099 2.207997 1.386403 -9.477903 -3.682796 -0 25.82892 -0 1.643244 -0.936919 14.90679 3.890132 -5.711055 8.276824 -1.038836 21.38535 -5.946611 0.6384417 19.57884 4.496966 2.278854 -19.3356 4.716921 -3.285782 -33.54833 14.86925 93.99084 5.399597 -16.00575 -0 0 26.23914 -33.82792 17.87152 16.45274 2.581019 -27.55964 -13.67754 -95.31388 6.893222 37.81247 0 0 -15.12404 8.927162 16.39304 1.513837
-287.0047 95.64526 -167.1391 9.761475 -8.202612 53.82335 7.097583 8.556932 -3.555204 -0 17.59923 -0 -7.554865 5.30099 2.207997 1.386403 -9.477903 -3.682796 -0 25.82892 -0 1.643244 -0.936919 14.90679 3.890132 -5.711055 8.276824 -1.038836 21.38535 -5.946611 0.6384417 19.57884 4.496966 2.278854 -19.3356 4.716921 -3.285782 -33.54833 14.86925 93.99084 5.399597 -16.00575 -0 0 26.23914 -33.82792 17.87152 16.45274 2.581019 -27.55964 -13.67754 -95.31388 6.893222 37.81247 0 0 -15.12404 8.927162 16.39304 1.513837
-281.5012 95.66106 -164.3638 9.665914 -8.315307 53.15811 7.097583 8.556932 -3.555204 -0 17.59923 -0 -7.554865 5.30099 2.207997 1.386403 -9.477903 -3.682796 -0 25.82892 -0 1.643244 -0.936919 14.90679 3.890132 -5.711055 8.276824 -1.038836 21.38535 -5.946611 0.6384417 19.57884 4.496966 2.278854 -19.3356 4.716921 -3.285782 -33.54833 14.86925 93.99084 5.399597 -16.00575 -0 0 26.23914 -33.82792 17.87152 16.45274 2.581019 -27.55964 -13.67754 -95.31388 6.893222 37.81247 0 0 -15.12404 8.927162 16.39304 1.513837
-276.0304 95.67685 -161.5245 9.569009 -8.426897 52.49249 7.097583 8.556932 -3.555204 -0 17.59923 -0 -7.554865 5.30099 2.207997 1.386403 -9.477903 -3.682796 -0 25.82892 -0 1.643244 -0.936919 14.90679 3.890132 -5.711055 8.276824 -1.038836 21.38535 -5.946611 0.6384417 19.57884 4.496966 2.278854 -19.3356 4.716921 -3.285782 -33.54833 14.86925 93.99084 5.399597 -16.00575 -0 0 26.23914 -33.82792 17.87152 16.45274 2.581019 -27.55964 -13.67754 -95.31388 6.893222 37.81247 0 0 -15.12404 8.927162 16.39304 1.513837
-270.593 95.69265 -158.6216 9.470772 -8.537364 51.82649 7.097583 8.556932 -3.555204 -0 17.59923 -0 -7.554865 5.30099 2.207997 1.386403 -9.477903 -3.682796 -0 25.82892 -0 1.643244 -0.936919 14.90679 3.890132 -5.711055 8.276824 -1.038836 21.38535 -5.946611 0.6384417 19.57884 4.496966 2.278854 -19.3356 4.716921 -3.285782 -33.54833 14.86925 93.99084 5.399597 -16.00575 -0 0 26.23914 -33.82792 17.87152 16.45274 2.581019 -27.55964 -13.67754 -95.31388 6.893222 37.81247 0 0 -15.12404 8.927162 16.39304 1.513837
-265.1899 95.70845 -155.6556 9.371214 -8.646695 51.1601 7.097583 8.556932 -3.555204 -0 17.59923 -0 -7.554865 5.30099 2.207997 1.386403 -9.477903 -3.682796 -0 25.82892 -0 1.643244 -0.936919 14.90679 3.890132 -5.711055 8.276824 -1.038836 21.38535 -5.946611 0.6384417 19.57884 4.496966 2.278854 -19.3356 4.716921 -3.285782 -33.54833 14.86925 93.99084 5.399597 -16.00575 -0 0 26.23914 -33.82792 17.87152 16.45274 2.581019 -27.55964 -13.67754 -95.31388 6.893222 37.81247 0 0 -15.12404 8.927162 16.39304 1.513837
-259.8217 95.72424 -152.6267 9.270348 -8.754873 50.49333 7.097583 8.556932 -3.555204 -0 17.59923 -0 -7.554865 5.30099 2.207997 1.386403 -9.477903 -3.682796 -0 25.82892 -0 1.643244 -0.936919 14.90679 3.890132 -5.711055 8.276824 -1.038836 21.38535 -5.946611 0.6384417 19.57884 4.496966 2.278854 -19.3356 4.716921 -3.285782 -33.54833 14.86925 93.99084 5.399597 -16.00575 -0 0 26.23914 -33.82792 17.87152 16.45274 2.581019 -27.55964 -13.67754 -95.31388 6.893222 37.81247 0 0 -15.12404 8.927162 16.39304 1.513837
